<svg version="1.1" xmlns="http://www.w3.org/2000/svg" xmlns:xlink="http://www.w3.org/1999/xlink" width="172.93244" height="103.39873" viewBox="0,0,172.93244,103.39873"><defs><linearGradient x1="183.04648" y1="134.92469" x2="183.04648" y2="187.80226" gradientUnits="userSpaceOnUse" id="color-1"><stop offset="0" stop-color="#414141"/><stop offset="1" stop-color="#585858"/></linearGradient><linearGradient x1="183.20958" y1="144.97062" x2="183.20958" y2="191.04217" gradientUnits="userSpaceOnUse" id="color-2"><stop offset="0" stop-color="#818181"/><stop offset="1" stop-color="#979797"/></linearGradient><linearGradient x1="183.23118" y1="149.97606" x2="183.23118" y2="184.86925" gradientUnits="userSpaceOnUse" id="color-3"><stop offset="0" stop-color="#aad3ff"/><stop offset="1" stop-color="#3a8fff"/></linearGradient><linearGradient x1="182.11955" y1="238.32343" x2="182.11955" y2="189.52519" gradientUnits="userSpaceOnUse" id="color-4"><stop offset="0" stop-color="#414141"/><stop offset="1" stop-color="#585858"/></linearGradient><linearGradient x1="181.73763" y1="228.9725" x2="181.73763" y2="188.3258" gradientUnits="userSpaceOnUse" id="color-5"><stop offset="0" stop-color="#818181"/><stop offset="1" stop-color="#979797"/></linearGradient><linearGradient x1="182.11885" y1="193.83633" x2="182.11885" y2="223.37475" gradientUnits="userSpaceOnUse" id="color-6"><stop offset="0" stop-color="#3a8fff"/><stop offset="1" stop-color="#aad3ff"/></linearGradient></defs><g transform="translate(-154.9062,-134.92469)"><g data-paper-data="{&quot;isPaintingLayer&quot;:true}" fill-rule="nonzero" stroke="none" stroke-linejoin="miter" stroke-miterlimit="10" stroke-dasharray="" stroke-dashoffset="0" style="mix-blend-mode: normal"><path d="M187.91918,181.6101c-2.79434,0 -5.35082,-0.46755 -7.66941,-1.40264c-2.31313,-0.93509 -4.30362,-2.25024 -5.97148,-3.94544c-1.66239,-1.70067 -2.95566,-3.71577 -3.87982,-6.0453c-0.91869,-2.335 -1.37803,-4.89967 -1.37803,-7.69402c0,-2.78888 0.45934,-5.33988 1.37803,-7.653c0.92416,-2.31859 2.21743,-4.32549 3.87982,-6.02069c1.66786,-1.70067 3.65835,-3.01855 5.97148,-3.95364c2.31859,-0.93509 4.87507,-1.40264 7.66941,-1.40264c2.78888,0 5.33441,0.46755 7.6366,1.40264c2.30219,0.93509 4.29268,2.25297 5.97148,3.95364c1.68426,1.6952 2.98574,3.7021 3.90443,6.02069c0.91869,2.31313 1.37803,4.86413 1.37803,7.653c0,2.79434 -0.45934,5.35902 -1.37803,7.69402c-0.91869,2.32953 -2.22016,4.34463 -3.90443,6.0453c-1.67879,1.6952 -3.66929,3.01035 -5.97148,3.94544c-2.30219,0.93509 -4.84772,1.40264 -7.6366,1.40264zM187.91918,177.13969c2.06158,0 3.95638,-0.37185 5.68439,-1.11555c1.72801,-0.74917 3.22635,-1.78269 4.49501,-3.10057c1.26866,-1.31788 2.24477,-2.8627 2.92832,-4.63446c0.68355,-1.77722 1.02532,-3.69936 1.02532,-5.76641c0,-2.06158 -0.34177,-3.98098 -1.02532,-5.75821c-0.68355,-1.77722 -1.65966,-3.32204 -2.92832,-4.63446c-1.26866,-1.31788 -2.767,-2.34047 -4.49501,-3.06776c-1.72801,-0.73276 -3.6228,-1.09915 -5.68439,-1.09915c-2.06158,0 -3.95911,0.36638 -5.69259,1.09915c-1.72801,0.72729 -3.21815,1.74988 -4.4704,3.06776c-1.25226,1.31241 -2.22837,2.85723 -2.92832,4.63446c-0.69448,1.77722 -1.04173,3.69663 -1.04173,5.75821c0,2.06705 0.34724,3.98919 1.04173,5.76641c0.69995,1.77176 1.67606,3.31658 2.92832,4.63446c1.25226,1.31788 2.7424,2.3514 4.4704,3.10057c1.73348,0.7437 3.63101,1.11555 5.69259,1.11555zM225.89418,181.32301c-2.53733,0 -4.79851,-0.57692 -6.78353,-1.73074c-1.97956,-1.1593 -3.53258,-2.73146 -4.65906,-4.71648c-1.12649,-1.98502 -1.68973,-4.22979 -1.68973,-6.73432c0,-2.57014 0.55504,-4.85319 1.66512,-6.84915c1.11008,-2.00143 2.63303,-3.56539 4.56884,-4.69187c1.93581,-1.12649 4.15597,-1.68973 6.66049,-1.68973c1.87019,0 3.58179,0.35818 5.13481,1.07454c1.55849,0.71089 2.95566,1.77996 4.19152,3.20721c0.44294,0.50856 0.60152,1.03352 0.47575,1.57489c-0.12577,0.5359 -0.47301,1.01165 -1.04173,1.42725c-0.44841,0.31717 -0.9433,0.42107 -1.48467,0.3117c-0.5359,-0.11484 -1.02532,-0.39372 -1.46826,-0.83666c-1.55302,-1.65145 -3.48883,-2.47718 -5.80742,-2.47718c-1.61864,0 -3.04589,0.37458 -4.28175,1.12375c-1.23585,0.7437 -2.20376,1.78269 -2.90371,3.11698c-0.69995,1.32882 -1.04993,2.89824 -1.04993,4.70828c0,1.7116 0.35545,3.23455 1.06633,4.56884c0.71636,1.33428 1.70887,2.38968 2.97754,3.16619c1.27413,0.77651 2.7506,1.16477 4.42939,1.16477c1.11008,0 2.08619,-0.13398 2.92832,-0.40193c0.84213,-0.27342 1.61044,-0.69448 2.30492,-1.2632c0.50856,-0.41013 1.03079,-0.6398 1.56669,-0.68902c0.54137,-0.04922 1.01985,0.10117 1.43545,0.45114c0.5359,0.44294 0.83666,0.9433 0.90228,1.50107c0.06562,0.55231 -0.12577,1.04993 -0.57418,1.49287c-2.28032,2.1272 -5.13481,3.1908 -8.56349,3.1908zM254.92313,181.32301c-2.63029,0 -4.97076,-0.56324 -7.02141,-1.68973c-2.04518,-1.12649 -3.64741,-2.67951 -4.80671,-4.65906c-1.15383,-1.98502 -1.73074,-4.2626 -1.73074,-6.83275c0,-2.60295 0.54684,-4.8942 1.64052,-6.87376c1.09368,-1.98502 2.60842,-3.54078 4.54423,-4.66727c1.93581,-1.12649 4.15597,-1.68973 6.66049,-1.68973c2.47718,0 4.60438,0.54684 6.3816,1.64052c1.77722,1.09368 3.13338,2.60022 4.06848,4.51962c0.93509,1.9194 1.40264,4.1341 1.40264,6.64409c0,0.60152 -0.2078,1.10188 -0.6234,1.50107c-0.41013,0.39372 -0.93236,0.59059 -1.56669,0.59059h-19.17762v-3.806h19.03818l-1.95221,1.32882c-0.03281,-1.58583 -0.34998,-3.00488 -0.9515,-4.25714c-0.60152,-1.25226 -1.46006,-2.24204 -2.57561,-2.96933c-1.11008,-0.73276 -2.45804,-1.09915 -4.04387,-1.09915c-1.80457,0 -3.34939,0.39646 -4.63446,1.18937c-1.28507,0.79291 -2.26118,1.88113 -2.92832,3.26463c-0.66714,1.37803 -1.00071,2.93926 -1.00071,4.68367c0,1.74441 0.39646,3.30017 1.18937,4.66727c0.79291,1.36163 1.88659,2.4389 3.28103,3.23182c1.39991,0.79291 3.00214,1.18937 4.80671,1.18937c0.98431,0 1.99049,-0.18046 3.01855,-0.54137c1.03352,-0.36638 1.86745,-0.78745 2.50179,-1.2632c0.47575,-0.34998 0.98978,-0.53317 1.54208,-0.54957c0.55778,-0.01641 1.04446,0.15038 1.46006,0.50036c0.5359,0.47575 0.82026,1.00071 0.85307,1.57489c0.03281,0.56871 -0.22147,1.05813 -0.76284,1.46826c-1.07727,0.85854 -2.41703,1.55849 -4.01926,2.09986c-1.60224,0.5359 -3.13338,0.80385 -4.59344,0.80385zM282.14738,181.32301c-2.31859,0 -4.39932,-0.57692 -6.24216,-1.73074c-1.83738,-1.1593 -3.2865,-2.73146 -4.34737,-4.71648c-1.06087,-1.98502 -1.5913,-4.22979 -1.5913,-6.73432c0,-2.50452 0.57692,-4.75476 1.73074,-6.75072c1.1593,-2.00143 2.73146,-3.58179 4.71648,-4.74109c1.98502,-1.1593 4.21339,-1.73895 6.6851,-1.73895c2.47718,0 4.69734,0.57965 6.66049,1.73895c1.96862,1.1593 3.53258,2.73966 4.69187,4.74109c1.15931,1.99596 1.73896,4.2462 1.73896,6.75072h-1.862c0,2.50452 -0.53043,4.74929 -1.5913,6.73432c-1.06087,1.98502 -2.51272,3.55718 -4.35557,4.71648c-1.83738,1.15383 -3.91536,1.73074 -6.23396,1.73074zM283.09888,177.04126c1.61864,0 3.0623,-0.38826 4.33096,-1.16477c1.26866,-0.77651 2.26665,-1.83738 2.99394,-3.1826c0.73276,-1.35069 1.09915,-2.86817 1.09915,-4.55243c0,-1.7116 -0.36638,-3.24002 -1.09915,-4.58524c-0.72729,-1.35069 -1.72528,-2.41429 -2.99394,-3.1908c-1.26866,-0.78198 -2.71232,-1.17297 -4.33096,-1.17297c-1.58583,0 -3.02128,0.39099 -4.30635,1.17297c-1.28507,0.77651 -2.30219,1.84011 -3.05136,3.1908c-0.7437,1.34522 -1.11555,2.87364 -1.11555,4.58524c0,1.68426 0.37185,3.20174 1.11555,4.55243c0.74917,1.34522 1.76629,2.40609 3.05136,3.1826c1.28507,0.77651 2.72052,1.16477 4.30635,1.16477zM293.76223,181.18356c-0.69995,0 -1.2796,-0.22967 -1.73895,-0.68902c-0.45934,-0.45934 -0.68902,-1.03899 -0.68902,-1.73895v-7.28389l0.90228,-5.04458l3.95366,1.71434v10.61413c0,0.69995 -0.23241,1.2796 -0.69723,1.73895c-0.45934,0.45934 -1.03626,0.68902 -1.73074,0.68902zM325.41067,181.18356c-0.69995,0 -1.2796,-0.22967 -1.73895,-0.68902c-0.45934,-0.45934 -0.68902,-1.03899 -0.68902,-1.73895v-11.70508c0,-1.81003 -0.33357,-3.2865 -1.00071,-4.42939c-0.66714,-1.14289 -1.56396,-1.99049 -2.69045,-2.5428c-1.12649,-0.55778 -2.41976,-0.83666 -3.87982,-0.83666c-1.32882,0 -2.5346,0.27069 -3.61734,0.81206c-1.07727,0.5359 -1.93307,1.25773 -2.56741,2.16548c-0.63433,0.90228 -0.9515,1.94128 -0.9515,3.11698h-3.00214c0,-2.00143 0.48395,-3.78686 1.45186,-5.35628c0.9679,-1.56943 2.29125,-2.81348 3.97005,-3.73217c1.68426,-0.92416 3.57359,-1.38624 5.66798,-1.38624c2.19282,0 4.15324,0.47028 5.88125,1.41084c1.72801,0.93509 3.09237,2.30766 4.09309,4.11769c1.00071,1.80457 1.50107,4.02473 1.50107,6.66049v11.70508c0,0.69995 -0.23241,1.2796 -0.69722,1.73895c-0.45934,0.45934 -1.03626,0.68902 -1.73074,0.68902zM305.84753,181.18356c-0.69995,0 -1.2796,-0.22967 -1.73895,-0.68902c-0.45934,-0.45934 -0.68902,-1.03899 -0.68902,-1.73895v-21.22827c0,-0.72729 0.22967,-1.31241 0.68902,-1.75535c0.45934,-0.44841 1.03899,-0.67261 1.73895,-0.67261c0.73276,0 1.32061,0.2242 1.76355,0.67261c0.44294,0.44294 0.66441,1.02806 0.66441,1.75535v21.22827c0,0.69995 -0.22147,1.2796 -0.66441,1.73895c-0.44294,0.45934 -1.03079,0.68902 -1.76355,0.68902z" fill="#000000" stroke-width="1" stroke-linecap="square"/><path d="M186.41918,225.22627c-2.79434,0 -5.35082,-0.46755 -7.66941,-1.40264c-2.31313,-0.93509 -4.30362,-2.25024 -5.97148,-3.94544c-1.66239,-1.70067 -2.95566,-3.71577 -3.87982,-6.0453c-0.91869,-2.335 -1.37803,-4.89967 -1.37803,-7.69402c0,-2.78888 0.45934,-5.33988 1.37803,-7.653c0.92416,-2.31859 2.21743,-4.32549 3.87982,-6.02069c1.66786,-1.70067 3.65835,-3.01855 5.97148,-3.95364c2.31859,-0.93509 4.87507,-1.40264 7.66941,-1.40264c2.78888,0 -0.16559,9.46755 2.1366,10.40264c2.30219,0.93509 4.54268,1.00297 6.22148,2.70364c1.68426,1.6952 8.23574,-4.0479 9.15443,-1.72931c0.91869,2.31313 1.37803,4.86413 1.37803,7.653c0,2.79434 -0.45934,5.35902 -1.37803,7.69402c-0.91869,2.32953 -2.22016,4.34463 -3.90443,6.0453c-1.67879,1.6952 -3.66929,3.01035 -5.97148,3.94544c-2.30219,0.93509 -4.84772,1.40264 -7.6366,1.40264zM186.41918,220.75587c2.06158,0 3.95638,-0.37185 5.68439,-1.11555c1.72801,-0.74917 3.22635,-1.78269 4.49501,-3.10057c1.26866,-1.31788 2.24477,-2.8627 2.92832,-4.63446c0.68355,-1.77722 1.02532,-3.69936 1.02532,-5.76641c0,-2.06158 -0.34177,-3.98098 -1.02532,-5.75821c-0.68355,-1.77722 -1.65966,-3.32204 -2.92832,-4.63446c-1.26866,-1.31788 -2.767,-2.34047 -4.49501,-3.06776c-1.72801,-0.73276 -3.6228,-1.09915 -5.68439,-1.09915c-2.06158,0 -3.95911,0.36638 -5.69259,1.09915c-1.72801,0.72729 -3.21815,1.74988 -4.4704,3.06776c-1.25226,1.31241 -2.22837,2.85723 -2.92832,4.63446c-0.69448,1.77722 -1.04173,3.69663 -1.04173,5.75821c0,2.06705 0.34724,3.98919 1.04173,5.76641c0.69995,1.77176 1.67606,3.31658 2.92832,4.63446c1.25226,1.31788 2.7424,2.3514 4.4704,3.10057c1.73348,0.7437 3.63101,1.11555 5.69259,1.11555zM215.01863,235.88962c-0.69995,0 -1.2796,-0.23241 -1.73895,-0.69722c-0.45934,-0.45934 -0.68902,-1.03626 -0.68902,-1.73074v-21.70402c0.03281,-2.50452 0.62066,-4.75476 1.76355,-6.75072c1.14289,-2.00143 2.69591,-3.58179 4.65906,-4.74109c1.96862,-1.1593 4.19152,-1.73895 6.66869,-1.73895c2.50452,0 4.74109,0.57965 6.70971,1.73895c1.96862,1.1593 3.52984,2.73966 4.68367,4.74109c1.1593,1.99596 1.73895,4.2462 1.73895,6.75072c0,2.50452 -0.53317,4.74929 -1.5995,6.73432c-1.06087,1.98502 -2.51272,3.55718 -4.35557,4.71648c-1.83738,1.15383 -3.91263,1.73074 -6.22576,1.73074c-1.87565,0 -3.5982,-0.38826 -5.16762,-1.16477c-1.56943,-0.77651 -2.90918,-1.83191 -4.01926,-3.16619v12.85344c0,0.69448 -0.22147,1.2714 -0.66441,1.73074c-0.44294,0.46481 -1.03079,0.69722 -1.76355,0.69722zM225.68198,220.65743c1.61864,0 3.0623,-0.38826 4.33096,-1.16477c1.26866,-0.77651 2.27485,-1.83738 3.01855,-3.1826c0.7437,-1.35069 1.11555,-2.86817 1.11555,-4.55243c0,-1.7116 -0.37185,-3.24002 -1.11555,-4.58524c-0.7437,-1.35069 -1.74988,-2.41429 -3.01855,-3.1908c-1.26866,-0.78198 -2.71232,-1.17297 -4.33096,-1.17297c-1.58583,0 -3.02128,0.39099 -4.30635,1.17297c-1.28507,0.77651 -2.29399,1.84011 -3.02675,3.1908c-0.72729,1.34522 -1.09094,2.87364 -1.09094,4.58524c0,1.68426 0.36365,3.20174 1.09094,4.55243c0.73276,1.34522 1.74168,2.40609 3.02675,3.1826c1.28507,0.77651 2.72052,1.16477 4.30635,1.16477zM256.89942,224.93918c-2.31859,0 -4.39932,-0.57692 -6.24216,-1.73074c-1.83738,-1.1593 -3.2865,-2.73146 -4.34737,-4.71648c-1.06087,-1.98502 -1.5913,-4.22979 -1.5913,-6.73432c0,-2.50452 0.57692,-4.75476 1.73074,-6.75072c1.1593,-2.00143 2.73146,-3.58179 4.71648,-4.74109c1.98502,-1.1593 4.21339,-1.73895 6.6851,-1.73895c2.47718,0 4.69734,0.57965 6.66049,1.73895c1.96862,1.1593 3.53258,2.73966 4.69187,4.74109c1.1593,1.99596 1.73895,4.2462 1.73895,6.75072h-1.86198c0,2.50452 -0.53043,4.74929 -1.5913,6.73432c-1.06087,1.98502 -2.51272,3.55718 -4.35557,4.71648c-1.83738,1.15383 -3.91536,1.73074 -6.23396,1.73074zM257.85092,220.65743c1.61864,0 3.0623,-0.38826 4.33096,-1.16477c1.26866,-0.77651 2.26665,-1.83738 2.99394,-3.1826c0.73276,-1.35069 1.09915,-2.86817 1.09915,-4.55243c0,-1.7116 -0.36638,-3.24002 -1.09915,-4.58524c-0.72729,-1.35069 -1.72528,-2.41429 -2.99394,-3.1908c-1.26866,-0.78198 -2.71232,-1.17297 -4.33096,-1.17297c-1.58583,0 -3.02128,0.39099 -4.30635,1.17297c-1.28507,0.77651 -2.30219,1.84011 -3.05136,3.1908c-0.7437,1.34522 -1.11555,2.87364 -1.11555,4.58524c0,1.68426 0.37185,3.20174 1.11555,4.55243c0.74917,1.34522 1.76629,2.40609 3.05136,3.1826c1.28507,0.77651 2.72052,1.16477 4.30635,1.16477zM268.51427,224.79974c-0.69995,0 -1.2796,-0.22967 -1.73895,-0.68902c-0.45934,-0.45934 -0.68902,-1.03899 -0.68902,-1.73895v-7.28389l0.90228,-5.04458l3.95364,1.71434v10.61413c0,0.69995 -0.23241,1.2796 -0.69722,1.73895c-0.45934,0.45934 -1.03626,0.68902 -1.73074,0.68902zM284.35633,224.75052c-1.39444,0 -2.63029,-0.38005 -3.70756,-1.14016c-1.07727,-0.7601 -1.9194,-1.7991 -2.52639,-3.11698c-0.60152,-1.31788 -0.90228,-2.83262 -0.90228,-4.54423v-25.98576c0,-0.69995 0.22147,-1.2714 0.66441,-1.71434c0.44841,-0.44294 1.01985,-0.66441 1.71434,-0.66441c0.69995,0 1.2714,0.22147 1.71434,0.66441c0.44294,0.44294 0.66441,1.01438 0.66441,1.71434v25.98576c0,1.17023 0.22147,2.13814 0.66441,2.90371c0.44841,0.7601 1.01985,1.14016 1.71434,1.14016h1.18937c0.6398,0 1.15656,0.22147 1.55029,0.66441c0.39919,0.44294 0.59879,1.01438 0.59879,1.71434c0,0.69995 -0.3035,1.2714 -0.91049,1.71434c-0.60152,0.44294 -1.37803,0.66441 -2.32953,0.66441z" fill="#000000" stroke-width="1" stroke-linecap="square"/><path d="M183.04648,187.80226c-14.81859,0 -26.83143,-11.83704 -26.83143,-26.43878c0,-14.60174 12.01284,-26.43878 26.83143,-26.43878c14.81859,0 26.83144,11.83704 26.83144,26.43878c0,14.60174 -12.01284,26.43878 -26.83144,26.43878z" fill="url(#color-1)" stroke-width="NaN" stroke-linecap="butt"/><path d="M183.20958,191.04217c-14.81859,0 -26.83143,-10.31346 -26.83143,-23.03577c0,-12.7223 12.01284,-23.03577 26.83143,-23.03577c14.81859,0 26.83143,10.31346 26.83143,23.03577c0,12.7223 -12.01284,23.03577 -26.83143,23.03577z" fill="url(#color-2)" stroke-width="NaN" stroke-linecap="butt"/><path d="M183.23118,184.86925c-11.22315,0 -20.32131,-7.8111 -20.32131,-17.44659c0,-9.63549 9.09816,-17.44659 20.32131,-17.44659c11.22315,0 20.32131,7.8111 20.32131,17.44659c0,9.63549 -9.09816,17.44659 -20.32131,17.44659z" fill="url(#color-3)" stroke-width="NaN" stroke-linecap="butt"/><path d="M208.95098,213.92431c0,13.47526 -12.01284,24.39912 -26.83144,24.39912c-14.81859,0 -26.83143,-10.92385 -26.83143,-24.39912c0,-13.47526 12.01284,-24.39912 26.83143,-24.39912c14.81859,0 26.83144,10.92385 26.83144,24.39912z" data-paper-data="{&quot;index&quot;:null}" fill="url(#color-4)" stroke-width="NaN" stroke-linecap="butt"/><path d="M208.56907,208.64915c0,11.22428 -12.01284,20.32336 -26.83143,20.32336c-14.81859,0 -26.83144,-9.09908 -26.83144,-20.32336c0,-11.22428 12.01284,-20.32336 26.83144,-20.32336c5.11601,0 9.89759,1.08454 13.96588,2.96665c7.71556,3.56944 12.86555,10.00753 12.86555,17.35672z" data-paper-data="{&quot;index&quot;:null}" fill="url(#color-5)" stroke-width="NaN" stroke-linecap="butt"/><path d="M182.11885,223.37475c-11.22315,0 -20.32131,-6.6124 -20.32131,-14.76921c0,-8.15681 9.09816,-14.76921 20.32131,-14.76921c11.22315,0 20.32131,6.6124 20.32131,14.76921c0,8.15681 -9.09816,14.76921 -20.32131,14.76921z" fill="url(#color-6)" stroke-width="NaN" stroke-linecap="butt"/></g></g></svg>